<svg xmlns="http://www.w3.org/2000/svg" xmlns:xlink="http://www.w3.org/1999/xlink" width="220" zoomAndPan="magnify" viewBox="0 0 165 34.499999" height="46" preserveAspectRatio="xMidYMid meet" version="1.2"><defs><clipPath id="1a184cc74e"><path d="M 1.179688 0 L 163.820312 0 L 163.820312 34.007812 L 1.179688 34.007812 Z M 1.179688 0 "/></clipPath><clipPath id="31cdb4c848"><path d="M 14 31 L 34 31 L 34 34.007812 L 14 34.007812 Z M 14 31 "/></clipPath><clipPath id="669c492aeb"><path d="M 28 31 L 34 31 L 34 34.007812 L 28 34.007812 Z M 28 31 "/></clipPath><clipPath id="22f5382a17"><path d="M 2.878906 4.292969 L 43 4.292969 L 43 34.007812 L 2.878906 34.007812 Z M 2.878906 4.292969 "/></clipPath><clipPath id="fec87ecd5f"><path d="M 36.53125 29.808594 L 162.125 29.808594 L 162.125 34.007812 L 36.53125 34.007812 Z M 36.53125 29.808594 "/></clipPath><clipPath id="49db25e109"><path d="M 38.945312 29.808594 L 159.707031 29.808594 C 161.039062 29.808594 162.121094 30.886719 162.121094 32.222656 C 162.121094 33.554688 161.039062 34.636719 159.707031 34.636719 L 38.945312 34.636719 C 37.609375 34.636719 36.53125 33.554688 36.53125 32.222656 C 36.53125 30.886719 37.609375 29.808594 38.945312 29.808594 Z M 38.945312 29.808594 "/></clipPath><clipPath id="7f58c0fa9d"><path d="M 60 21 L 66 21 L 66 28 L 60 28 Z M 60 21 "/></clipPath><clipPath id="9630a66e0b"><path d="M 62.9375 27.730469 L 60.121094 24.511719 L 63.121094 21.886719 L 65.9375 25.109375 Z M 62.9375 27.730469 "/></clipPath><clipPath id="225422c68d"><path d="M 60 13 L 66 13 L 66 19 L 60 19 Z M 60 13 "/></clipPath><clipPath id="24e3cd7345"><path d="M 65.496094 15.800781 L 63.144531 18.65625 L 60.558594 16.527344 L 62.910156 13.671875 Z M 65.496094 15.800781 "/></clipPath></defs><g id="ff87098a04"><g clip-rule="nonzero" clip-path="url(#1a184cc74e)"><path style=" stroke:none;fill-rule:nonzero;fill:#ffffff;fill-opacity:1;" d="M 1.179688 0 L 163.820312 0 L 163.820312 34.007812 L 1.179688 34.007812 Z M 1.179688 0 "/><path style=" stroke:none;fill-rule:nonzero;fill:#ffffff;fill-opacity:1;" d="M 1.179688 0 L 163.820312 0 L 163.820312 34.007812 L 1.179688 34.007812 Z M 1.179688 0 "/></g><g clip-rule="nonzero" clip-path="url(#31cdb4c848)"><path style=" stroke:none;fill-rule:nonzero;fill:#5f6fff;fill-opacity:1;" d="M 28.351562 31.734375 L 28.351562 43.554688 C 28.351562 46.039062 26.335938 48.054688 23.851562 48.054688 C 21.363281 48.054688 19.347656 46.039062 19.347656 43.554688 L 19.347656 36.394531 L 14.542969 36.394531 L 14.542969 43.554688 C 14.542969 48.691406 18.710938 52.859375 23.851562 52.859375 C 28.992188 52.859375 33.15625 48.691406 33.15625 43.554688 L 33.15625 31.734375 L 28.351562 31.734375 "/></g><g clip-rule="nonzero" clip-path="url(#669c492aeb)"><path style=" stroke:none;fill-rule:nonzero;fill:#a7a5a6;fill-opacity:1;" d="M 33.15625 36.394531 L 33.15625 31.734375 L 28.351562 31.734375 L 33.15625 31.734375 L 33.15625 36.394531 "/><path style=" stroke:none;fill-rule:nonzero;fill:#356f95;fill-opacity:1;" d="M 28.351562 36.394531 L 33.15625 36.394531 L 33.15625 31.734375 L 28.351562 31.734375 Z M 28.351562 36.394531 "/></g><g clip-rule="nonzero" clip-path="url(#22f5382a17)"><path style=" stroke:none;fill-rule:nonzero;fill:#5f6fff;fill-opacity:1;" d="M 39.6875 29.675781 L 12.253906 29.675781 C 9.777344 29.675781 7.714844 27.707031 7.683594 25.234375 C 7.648438 22.71875 9.675781 20.671875 12.183594 20.671875 L 19.339844 20.671875 L 19.339844 13.609375 C 19.339844 11.121094 21.359375 9.105469 23.847656 9.105469 L 23.84375 9.105469 C 26.332031 9.105469 28.347656 11.121094 28.347656 13.609375 L 28.347656 27.710938 L 33.175781 27.710938 L 33.175781 13.609375 C 33.175781 8.46875 29.011719 4.300781 23.871094 4.300781 L 23.839844 4.300781 C 18.707031 4.300781 14.507812 8.5 14.507812 13.632812 L 14.507812 15.839844 L 12.183594 15.839844 C 7.042969 15.839844 2.878906 20.03125 2.878906 25.171875 C 2.878906 30.3125 7.042969 34.507812 12.183594 34.507812 L 39.6875 34.507812 C 41.019531 34.507812 42.101562 33.425781 42.101562 32.09375 C 42.101562 30.757812 41.019531 29.675781 39.6875 29.675781 "/></g><g clip-rule="nonzero" clip-path="url(#fec87ecd5f)"><g clip-rule="nonzero" clip-path="url(#49db25e109)"><path style=" stroke:none;fill-rule:nonzero;fill:#5f6fff;fill-opacity:1;" d="M 36.53125 29.808594 L 162.125 29.808594 L 162.125 34.636719 L 36.53125 34.636719 Z M 36.53125 29.808594 "/></g></g><g style="fill:#fc7217;fill-opacity:0.4;"><g transform="translate(51.223651, 27.309725)"><path style="stroke:none" d="M 7.734375 -13.8125 C 9.765625 -13.8125 11.4375 -13.132812 12.75 -11.78125 C 14.03125 -10.457031 14.671875 -8.804688 14.671875 -6.828125 C 14.671875 -4.847656 14.03125 -3.195312 12.75 -1.875 C 11.4375 -0.507812 9.765625 0.171875 7.734375 0.171875 C 5.703125 0.171875 4.03125 -0.507812 2.71875 -1.875 C 1.4375 -3.195312 0.796875 -4.847656 0.796875 -6.828125 C 0.796875 -8.804688 1.4375 -10.457031 2.71875 -11.78125 C 4.03125 -13.132812 5.703125 -13.8125 7.734375 -13.8125 Z M 7.734375 -1.34375 C 9.359375 -1.34375 10.671875 -1.867188 11.671875 -2.921875 C 12.640625 -3.941406 13.125 -5.242188 13.125 -6.828125 C 13.125 -8.410156 12.640625 -9.707031 11.671875 -10.71875 C 10.671875 -11.78125 9.359375 -12.3125 7.734375 -12.3125 C 6.109375 -12.3125 4.796875 -11.78125 3.796875 -10.71875 C 2.828125 -9.707031 2.34375 -8.410156 2.34375 -6.828125 C 2.34375 -5.242188 2.828125 -3.941406 3.796875 -2.921875 C 4.796875 -1.867188 6.109375 -1.34375 7.734375 -1.34375 Z M 7.734375 -1.34375 "/></g></g><g style="fill:#5f6fff;fill-opacity:1;"><g transform="translate(51.223651, 27.309725)"><path style="stroke:none" d="M 7.734375 -13.8125 C 9.765625 -13.8125 11.4375 -13.132812 12.75 -11.78125 C 14.03125 -10.457031 14.671875 -8.804688 14.671875 -6.828125 C 14.671875 -4.847656 14.03125 -3.195312 12.75 -1.875 C 11.4375 -0.507812 9.765625 0.171875 7.734375 0.171875 C 5.703125 0.171875 4.03125 -0.507812 2.71875 -1.875 C 1.4375 -3.195312 0.796875 -4.847656 0.796875 -6.828125 C 0.796875 -8.804688 1.4375 -10.457031 2.71875 -11.78125 C 4.03125 -13.132812 5.703125 -13.8125 7.734375 -13.8125 Z M 7.734375 -1.34375 C 9.359375 -1.34375 10.671875 -1.867188 11.671875 -2.921875 C 12.640625 -3.941406 13.125 -5.242188 13.125 -6.828125 C 13.125 -8.410156 12.640625 -9.707031 11.671875 -10.71875 C 10.671875 -11.78125 9.359375 -12.3125 7.734375 -12.3125 C 6.109375 -12.3125 4.796875 -11.78125 3.796875 -10.71875 C 2.828125 -9.707031 2.34375 -8.410156 2.34375 -6.828125 C 2.34375 -5.242188 2.828125 -3.941406 3.796875 -2.921875 C 4.796875 -1.867188 6.109375 -1.34375 7.734375 -1.34375 Z M 7.734375 -1.34375 "/></g></g><g clip-rule="nonzero" clip-path="url(#7f58c0fa9d)"><g clip-rule="nonzero" clip-path="url(#9630a66e0b)"><path style=" stroke:none;fill-rule:nonzero;fill:#ffffff;fill-opacity:1;" d="M 62.9375 27.730469 L 60.117188 24.507812 L 63.121094 21.882812 L 65.9375 25.109375 Z M 62.9375 27.730469 "/></g></g><g clip-rule="nonzero" clip-path="url(#225422c68d)"><g clip-rule="nonzero" clip-path="url(#24e3cd7345)"><path style=" stroke:none;fill-rule:nonzero;fill:#ffffff;fill-opacity:1;" d="M 65.496094 15.800781 L 63.140625 18.660156 L 60.558594 16.53125 L 62.910156 13.671875 Z M 65.496094 15.800781 "/></g></g><g style="fill:#5f6fff;fill-opacity:1;"><g transform="translate(104.026176, 27.389757)"><path style="stroke:none" d="M 3.171875 -12.015625 L 3.171875 -7.5 L 10.671875 -7.5 L 10.671875 -6 L 3.171875 -6 L 3.171875 -1.46875 L 11.5625 -1.46875 L 11.5625 0 L 1.65625 0 L 1.65625 -13.484375 L 11.5625 -13.484375 L 11.5625 -12.015625 Z M 3.171875 -12.015625 "/></g></g><g style="fill:#474747;fill-opacity:1;"><g transform="translate(113.937505, 27.389757)"><path style="stroke:none" d="M 7.328125 -13.484375 C 8.128906 -13.484375 8.898438 -13.328125 9.640625 -13.015625 C 10.390625 -12.710938 11.050781 -12.269531 11.625 -11.6875 C 12.882812 -10.394531 13.515625 -8.742188 13.515625 -6.734375 C 13.515625 -4.722656 12.882812 -3.078125 11.625 -1.796875 C 11.050781 -1.210938 10.390625 -0.765625 9.640625 -0.453125 C 8.898438 -0.148438 8.128906 0 7.328125 0 L 1.65625 0 L 1.65625 -13.484375 Z M 7.265625 -1.453125 C 8.679688 -1.453125 9.828125 -1.972656 10.703125 -3.015625 C 11.554688 -4.015625 11.984375 -5.253906 11.984375 -6.734375 C 11.984375 -8.210938 11.554688 -9.457031 10.703125 -10.46875 C 9.828125 -11.507812 8.679688 -12.03125 7.265625 -12.03125 L 3.171875 -12.03125 L 3.171875 -1.453125 Z M 7.265625 -1.453125 "/></g></g><g style="fill:#474747;fill-opacity:1;"><g transform="translate(126.329687, 27.389757)"><path style="stroke:none" d="M 12.953125 -13.484375 L 12.953125 -5.796875 C 12.953125 -4.003906 12.414062 -2.5625 11.34375 -1.46875 C 10.28125 -0.382812 8.898438 0.15625 7.203125 0.15625 C 5.523438 0.15625 4.148438 -0.382812 3.078125 -1.46875 C 2.015625 -2.5625 1.484375 -4.003906 1.484375 -5.796875 L 1.484375 -13.484375 L 3.015625 -13.484375 L 3.015625 -5.765625 C 3.015625 -4.304688 3.445312 -3.171875 4.3125 -2.359375 C 5.0625 -1.671875 6.023438 -1.328125 7.203125 -1.328125 C 8.390625 -1.328125 9.363281 -1.671875 10.125 -2.359375 C 10.988281 -3.160156 11.421875 -4.296875 11.421875 -5.765625 L 11.421875 -13.484375 Z M 12.953125 -13.484375 "/></g></g><g style="fill:#474747;fill-opacity:1;"><g transform="translate(137.920401, 27.389757)"><path style="stroke:none" d="M 3.171875 -13.484375 L 3.171875 -1.46875 L 10.53125 -1.46875 L 10.53125 0 L 1.65625 0 L 1.65625 -13.484375 Z M 3.171875 -13.484375 "/></g></g><g style="fill:#474747;fill-opacity:1;"><g transform="translate(145.433334, 27.389757)"><path style="stroke:none" d="M 3.171875 -12.015625 L 3.171875 -7.5 L 10.671875 -7.5 L 10.671875 -6 L 3.171875 -6 L 3.171875 -1.46875 L 11.5625 -1.46875 L 11.5625 0 L 1.65625 0 L 1.65625 -13.484375 L 11.5625 -13.484375 L 11.5625 -12.015625 Z M 3.171875 -12.015625 "/></g></g><g style="fill:#474747;fill-opacity:1;"><g transform="translate(60.124159, 27.308939)"><path style="stroke:none" d="M 7.75 -1.34375 C 8.726562 -1.34375 9.582031 -1.585938 10.3125 -2.078125 C 11.050781 -2.578125 11.601562 -3.242188 11.96875 -4.078125 L 13.59375 -4.078125 C 13.132812 -2.785156 12.382812 -1.769531 11.34375 -1.03125 C 10.226562 -0.226562 8.914062 0.171875 7.40625 0.171875 C 5.40625 0.171875 3.789062 -0.507812 2.5625 -1.875 C 1.382812 -3.1875 0.796875 -4.835938 0.796875 -6.828125 C 0.796875 -8.816406 1.382812 -10.46875 2.5625 -11.78125 C 3.789062 -13.132812 5.40625 -13.8125 7.40625 -13.8125 C 8.914062 -13.8125 10.226562 -13.414062 11.34375 -12.625 C 12.382812 -11.882812 13.132812 -10.863281 13.59375 -9.5625 L 11.96875 -9.5625 C 11.601562 -10.40625 11.050781 -11.070312 10.3125 -11.5625 C 9.582031 -12.0625 8.726562 -12.3125 7.75 -12.3125 C 6.78125 -12.3125 5.972656 -12.171875 5.328125 -11.890625 C 4.679688 -11.609375 4.132812 -11.21875 3.6875 -10.71875 C 2.789062 -9.71875 2.34375 -8.421875 2.34375 -6.828125 C 2.34375 -5.234375 2.789062 -3.929688 3.6875 -2.921875 C 4.625 -1.867188 5.976562 -1.34375 7.75 -1.34375 Z M 7.75 -1.34375 "/></g></g><g style="fill:#474747;fill-opacity:1;"><g transform="translate(34.295141, 27.466163)"><path style="stroke:none" d="M 9.609375 -17.671875 C 10.660156 -17.671875 11.675781 -17.46875 12.65625 -17.0625 C 13.632812 -16.664062 14.492188 -16.082031 15.234375 -15.3125 C 16.890625 -13.625 17.71875 -11.460938 17.71875 -8.828125 C 17.71875 -6.203125 16.890625 -4.039062 15.234375 -2.34375 C 14.492188 -1.582031 13.632812 -1 12.65625 -0.59375 C 11.675781 -0.195312 10.660156 0 9.609375 0 L 2.15625 0 L 2.15625 -17.671875 Z M 9.53125 -1.890625 C 11.375 -1.890625 12.875 -2.578125 14.03125 -3.953125 C 15.15625 -5.265625 15.71875 -6.890625 15.71875 -8.828125 C 15.71875 -10.773438 15.15625 -12.40625 14.03125 -13.71875 C 12.875 -15.082031 11.375 -15.765625 9.53125 -15.765625 L 4.15625 -15.765625 L 4.15625 -1.890625 Z M 9.53125 -1.890625 "/></g></g><g style="fill:#474747;fill-opacity:1;"><g transform="translate(71.344616, 27.61906)"><path style="stroke:none" d="M 2.9375 -11.875 C 2.6875 -11.644531 2.515625 -11.382812 2.421875 -11.09375 C 2.335938 -10.8125 2.300781 -10.507812 2.3125 -10.1875 C 2.320312 -9.875 2.46875 -9.585938 2.75 -9.328125 C 3.039062 -9.078125 3.410156 -8.863281 3.859375 -8.6875 C 4.316406 -8.519531 4.832031 -8.375 5.40625 -8.25 C 5.988281 -8.132812 6.578125 -8.007812 7.171875 -7.875 C 7.765625 -7.75 8.351562 -7.601562 8.9375 -7.4375 C 9.53125 -7.269531 10.050781 -7.046875 10.5 -6.765625 C 11.507812 -6.160156 12.035156 -5.3125 12.078125 -4.21875 C 12.109375 -2.914062 11.644531 -1.90625 10.6875 -1.1875 C 9.738281 -0.46875 8.40625 -0.0820312 6.6875 -0.03125 C 4.738281 0.03125 3.242188 -0.328125 2.203125 -1.109375 C 1.265625 -1.816406 0.710938 -2.835938 0.546875 -4.171875 L 2.1875 -4.234375 C 2.269531 -3.285156 2.753906 -2.566406 3.640625 -2.078125 C 4.398438 -1.671875 5.40625 -1.488281 6.65625 -1.53125 C 9.257812 -1.613281 10.539062 -2.472656 10.5 -4.109375 C 10.476562 -4.671875 10.226562 -5.101562 9.75 -5.40625 C 9.269531 -5.71875 8.671875 -5.96875 7.953125 -6.15625 C 7.242188 -6.34375 6.476562 -6.515625 5.65625 -6.671875 C 4.832031 -6.828125 4.0625 -7.035156 3.34375 -7.296875 C 2.625 -7.566406 2.019531 -7.925781 1.53125 -8.375 C 1.050781 -8.832031 0.800781 -9.460938 0.78125 -10.265625 C 0.75 -11.398438 1.15625 -12.335938 2 -13.078125 C 2.851562 -13.816406 4.15625 -14.210938 5.90625 -14.265625 C 7.664062 -14.316406 9.039062 -13.953125 10.03125 -13.171875 C 10.9375 -12.492188 11.429688 -11.59375 11.515625 -10.46875 L 9.90625 -10.421875 C 9.726562 -11.566406 8.960938 -12.3125 7.609375 -12.65625 C 7.117188 -12.769531 6.519531 -12.816406 5.8125 -12.796875 C 5.113281 -12.773438 4.523438 -12.675781 4.046875 -12.5 C 3.566406 -12.320312 3.195312 -12.113281 2.9375 -11.875 Z M 2.9375 -11.875 "/></g></g><g style="fill:#474747;fill-opacity:1;"><g transform="translate(82.482814, 27.389757)"><path style="stroke:none" d="M 7.65625 -1.328125 C 8.613281 -1.328125 9.457031 -1.570312 10.1875 -2.0625 C 10.914062 -2.550781 11.457031 -3.207031 11.8125 -4.03125 L 13.421875 -4.03125 C 12.972656 -2.757812 12.234375 -1.753906 11.203125 -1.015625 C 10.097656 -0.234375 8.800781 0.15625 7.3125 0.15625 C 5.34375 0.15625 3.75 -0.515625 2.53125 -1.859375 C 1.375 -3.140625 0.796875 -4.765625 0.796875 -6.734375 C 0.796875 -8.703125 1.375 -10.332031 2.53125 -11.625 C 3.75 -12.96875 5.34375 -13.640625 7.3125 -13.640625 C 8.800781 -13.640625 10.097656 -13.242188 11.203125 -12.453125 C 12.234375 -11.722656 12.972656 -10.722656 13.421875 -9.453125 L 11.8125 -9.453125 C 11.457031 -10.273438 10.914062 -10.929688 10.1875 -11.421875 C 9.457031 -11.910156 8.609375 -12.15625 7.640625 -12.15625 C 6.679688 -12.15625 5.882812 -12.015625 5.25 -11.734375 C 4.613281 -11.453125 4.078125 -11.070312 3.640625 -10.59375 C 2.765625 -9.59375 2.328125 -8.304688 2.328125 -6.734375 C 2.328125 -5.160156 2.765625 -3.878906 3.640625 -2.890625 C 4.566406 -1.847656 5.90625 -1.328125 7.65625 -1.328125 Z M 7.65625 -1.328125 "/></g></g><g style="fill:#474747;fill-opacity:1;"><g transform="translate(94.590108, 27.389757)"><path style="stroke:none" d="M 12.546875 -13.484375 L 12.546875 0 L 11.015625 0 L 11.015625 -6 L 3.171875 -6 L 3.171875 0 L 1.65625 0 L 1.65625 -13.484375 L 3.171875 -13.484375 L 3.171875 -7.5 L 11.015625 -7.5 L 11.015625 -13.484375 Z M 12.546875 -13.484375 "/></g></g></g></svg>